%TF.GenerationSoftware,KiCad,Pcbnew,10.0.3*%
%TF.CreationDate,2026-06-14T19:48:05-04:00*%
%TF.ProjectId,PowerButton,506f7765-7242-4757-9474-6f6e2e6b6963,rev?*%
%TF.SameCoordinates,Original*%
%TF.FileFunction,Copper,L1,Top*%
%TF.FilePolarity,Positive*%
%FSLAX46Y46*%
G04 Gerber Fmt 4.6, Leading zero omitted, Abs format (unit mm)*
G04 Created by KiCad (PCBNEW 10.0.3) date 2026-06-14 19:48:05*
%MOMM*%
%LPD*%
G01*
G04 APERTURE LIST*
%TA.AperFunction,ComponentPad*%
%ADD10C,1.700000*%
%TD*%
%TA.AperFunction,ComponentPad*%
%ADD11R,1.700000X1.700000*%
%TD*%
%TA.AperFunction,ComponentPad*%
%ADD12C,1.600000*%
%TD*%
%TA.AperFunction,ComponentPad*%
%ADD13R,1.905000X2.000000*%
%TD*%
%TA.AperFunction,ComponentPad*%
%ADD14O,1.905000X2.000000*%
%TD*%
%TA.AperFunction,ComponentPad*%
%ADD15R,1.050000X1.500000*%
%TD*%
%TA.AperFunction,ComponentPad*%
%ADD16O,1.050000X1.500000*%
%TD*%
%TA.AperFunction,Conductor*%
%ADD17C,0.200000*%
%TD*%
G04 APERTURE END LIST*
D10*
%TO.P,J1,7,Pin_7_7*%
%TO.N,Net-(J1-Pin_7)*%
X131000000Y-89240000D03*
%TO.P,J1,6,Pin_6_6*%
%TO.N,GND*%
X131000000Y-86700000D03*
%TO.P,J1,5,Pin_5_5*%
%TO.N,/PWR_SIG*%
X131000000Y-84160000D03*
%TO.P,J1,4,Pin_4_4*%
%TO.N,/POWER*%
X131000000Y-81620000D03*
%TO.P,J1,3,Pin_3_3*%
%TO.N,/VIN*%
X131000000Y-79080000D03*
%TO.P,J1,2,Pin_2_2*%
%TO.N,/VBUS*%
X131000000Y-76540000D03*
D11*
%TO.P,J1,1,Pin_1_1*%
%TO.N,GND*%
X131000000Y-74000000D03*
%TD*%
D12*
%TO.P,R44,2*%
%TO.N,Net-(Q27-B)*%
X123690000Y-98000000D03*
%TO.P,R44,1*%
%TO.N,Net-(J1-Pin_7)*%
X131310000Y-98000000D03*
%TD*%
%TO.P,R46,1*%
%TO.N,Net-(Q25-C)*%
X109840000Y-102237157D03*
%TO.P,R46,2*%
%TO.N,/VBUS*%
X117460000Y-102237157D03*
%TD*%
%TO.P,R45,1*%
%TO.N,Net-(J1-Pin_7)*%
X131310000Y-104000000D03*
%TO.P,R45,2*%
%TO.N,/VBUS*%
X123690000Y-104000000D03*
%TD*%
%TO.P,R43,1*%
%TO.N,/VBUS*%
X112190000Y-89500000D03*
%TO.P,R43,2*%
%TO.N,Net-(Q24-C)*%
X119810000Y-89500000D03*
%TD*%
D13*
%TO.P,Q28,1,G_1*%
%TO.N,Net-(Q25-C)*%
X111420000Y-97000000D03*
D14*
%TO.P,Q28,2,D_2*%
%TO.N,/VIN*%
X113960000Y-97000000D03*
%TO.P,Q28,3,S_3*%
%TO.N,/VBUS*%
X116500000Y-97000000D03*
%TD*%
D15*
%TO.P,Q27,1,E_1*%
%TO.N,GND*%
X123730000Y-92860000D03*
D16*
%TO.P,Q27,2,B_2*%
%TO.N,Net-(Q27-B)*%
X125000000Y-92860000D03*
%TO.P,Q27,3,C_3*%
%TO.N,/PWR_SIG*%
X126270000Y-92860000D03*
%TD*%
D15*
%TO.P,Q26,1,E_1*%
%TO.N,Net-(J1-Pin_7)*%
X122910000Y-82550000D03*
D16*
%TO.P,Q26,2,B_2*%
%TO.N,Net-(Q24-C)*%
X124180000Y-82550000D03*
%TO.P,Q26,3,C_3*%
%TO.N,Net-(Q25-C)*%
X125450000Y-82550000D03*
%TD*%
D15*
%TO.P,Q25,1,E_1*%
%TO.N,GND*%
X115230000Y-82860000D03*
D16*
%TO.P,Q25,2,B_2*%
%TO.N,Net-(Q25-B)*%
X116500000Y-82860000D03*
%TO.P,Q25,3,C_3*%
%TO.N,Net-(Q25-C)*%
X117770000Y-82860000D03*
%TD*%
D15*
%TO.P,Q24,1,E_1*%
%TO.N,GND*%
X123230000Y-74860000D03*
D16*
%TO.P,Q24,2,B_2*%
%TO.N,Net-(Q24-B)*%
X124500000Y-74860000D03*
%TO.P,Q24,3,C_3*%
%TO.N,Net-(Q24-C)*%
X125770000Y-74860000D03*
%TD*%
D12*
%TO.P,R42,1*%
%TO.N,/POWER*%
X112690000Y-75500000D03*
%TO.P,R42,2*%
%TO.N,Net-(Q25-B)*%
X120310000Y-75500000D03*
%TD*%
%TO.P,R41,1*%
%TO.N,Net-(Q24-B)*%
X120500000Y-69000000D03*
%TO.P,R41,2*%
%TO.N,/POWER*%
X112880000Y-69000000D03*
%TD*%
%TO.N,GND*%
D17*
X123730000Y-92860000D02*
X123730000Y-89803654D01*
X123730000Y-89803654D02*
X130523654Y-83010000D01*
X130523654Y-83010000D02*
X131476346Y-83010000D01*
X131476346Y-83010000D02*
X132150000Y-83683654D01*
X132150000Y-83683654D02*
X132150000Y-85550000D01*
X132150000Y-85550000D02*
X131000000Y-86700000D01*
%TO.N,/PWR_SIG*%
X127140000Y-92860000D02*
X129000000Y-91000000D01*
X129000000Y-86160000D02*
X131000000Y-84160000D01*
X126270000Y-92860000D02*
X127140000Y-92860000D01*
X129000000Y-91000000D02*
X129000000Y-86160000D01*
%TO.N,/VIN*%
X113960000Y-97000000D02*
X111090000Y-94130000D01*
X111090000Y-94130000D02*
X111090000Y-89044365D01*
X111090000Y-89044365D02*
X111734365Y-88400000D01*
X129850000Y-81157055D02*
X129850000Y-80230000D01*
X111734365Y-88400000D02*
X116400000Y-88400000D01*
X116400000Y-88400000D02*
X118600000Y-90600000D01*
X118600000Y-90600000D02*
X120407055Y-90600000D01*
X120407055Y-90600000D02*
X129850000Y-81157055D01*
X129850000Y-80230000D02*
X131000000Y-79080000D01*
%TO.N,Net-(J1-Pin_7)*%
X131310000Y-98000000D02*
X131310000Y-89550000D01*
X131310000Y-89550000D02*
X131000000Y-89240000D01*
%TO.N,Net-(Q24-C)*%
X119810000Y-89500000D02*
X120941370Y-89500000D01*
X125791726Y-81500000D02*
X124735000Y-81500000D01*
X124735000Y-81500000D02*
X124180000Y-82055000D01*
X120941370Y-89500000D02*
X126275000Y-84166370D01*
X126275000Y-84166370D02*
X126275000Y-81983274D01*
X126275000Y-81983274D02*
X125791726Y-81500000D01*
X124180000Y-82055000D02*
X124180000Y-82550000D01*
%TO.N,/VBUS*%
X112190000Y-89500000D02*
X112190000Y-92690000D01*
X112190000Y-92690000D02*
X116500000Y-97000000D01*
%TO.N,Net-(Q27-B)*%
X125000000Y-92860000D02*
X125000000Y-96690000D01*
X125000000Y-96690000D02*
X123690000Y-98000000D01*
%TO.N,GND*%
X123230000Y-74860000D02*
X122770000Y-74400000D01*
X122770000Y-74400000D02*
X119854365Y-74400000D01*
X119854365Y-74400000D02*
X115230000Y-79024365D01*
X115230000Y-79024365D02*
X115230000Y-82860000D01*
%TO.N,Net-(Q25-B)*%
X120310000Y-75500000D02*
X116500000Y-79310000D01*
X116500000Y-79310000D02*
X116500000Y-82860000D01*
%TO.N,Net-(Q24-B)*%
X120500000Y-69000000D02*
X124500000Y-73000000D01*
X124500000Y-73000000D02*
X124500000Y-74860000D01*
%TO.N,Net-(Q24-C)*%
X125770000Y-74860000D02*
X125770000Y-75085000D01*
X125770000Y-75085000D02*
X124180000Y-76675000D01*
X124180000Y-76675000D02*
X124180000Y-82550000D01*
%TO.N,Net-(Q25-C)*%
X110500000Y-96080000D02*
X110500000Y-89000000D01*
X111420000Y-97000000D02*
X110500000Y-96080000D01*
X110500000Y-89000000D02*
X115190000Y-84310000D01*
X115190000Y-84310000D02*
X116690000Y-84310000D01*
X116690000Y-84310000D02*
X117770000Y-83230000D01*
X117770000Y-83230000D02*
X117770000Y-82860000D01*
%TO.N,/VBUS*%
X117460000Y-102237157D02*
X117737157Y-102237157D01*
X117737157Y-102237157D02*
X119500000Y-104000000D01*
X119500000Y-104000000D02*
X123690000Y-104000000D01*
%TO.N,Net-(Q25-C)*%
X117770000Y-82860000D02*
X118510000Y-83600000D01*
X118510000Y-83600000D02*
X124625000Y-83600000D01*
X124625000Y-83600000D02*
X125450000Y-82775000D01*
X125450000Y-82775000D02*
X125450000Y-82550000D01*
%TO.N,/VBUS*%
X116500000Y-97000000D02*
X116500000Y-101277157D01*
X116500000Y-101277157D02*
X117460000Y-102237157D01*
%TO.N,Net-(Q25-C)*%
X111420000Y-97000000D02*
X111420000Y-100657157D01*
X111420000Y-100657157D02*
X109840000Y-102237157D01*
%TO.N,/POWER*%
X112880000Y-69000000D02*
X112880000Y-75310000D01*
X112880000Y-75310000D02*
X112690000Y-75500000D01*
%TD*%
M02*
