%TF.GenerationSoftware,KiCad,Pcbnew,10.0.3*%
%TF.CreationDate,2026-06-18T15:34:24-04:00*%
%TF.ProjectId,PowerButton,506f7765-7242-4757-9474-6f6e2e6b6963,rev?*%
%TF.SameCoordinates,Original*%
%TF.FileFunction,Copper,L1,Top*%
%TF.FilePolarity,Positive*%
%FSLAX46Y46*%
G04 Gerber Fmt 4.6, Leading zero omitted, Abs format (unit mm)*
G04 Created by KiCad (PCBNEW 10.0.3) date 2026-06-18 15:34:24*
%MOMM*%
%LPD*%
G01*
G04 APERTURE LIST*
%TA.AperFunction,ComponentPad*%
%ADD10C,1.600000*%
%TD*%
%TA.AperFunction,ComponentPad*%
%ADD11R,1.050000X1.500000*%
%TD*%
%TA.AperFunction,ComponentPad*%
%ADD12O,1.050000X1.500000*%
%TD*%
%TA.AperFunction,ComponentPad*%
%ADD13R,1.905000X2.000000*%
%TD*%
%TA.AperFunction,ComponentPad*%
%ADD14O,1.905000X2.000000*%
%TD*%
%TA.AperFunction,ComponentPad*%
%ADD15R,1.700000X1.700000*%
%TD*%
%TA.AperFunction,ComponentPad*%
%ADD16C,1.700000*%
%TD*%
%TA.AperFunction,ViaPad*%
%ADD17C,0.600000*%
%TD*%
%TA.AperFunction,Conductor*%
%ADD18C,0.200000*%
%TD*%
G04 APERTURE END LIST*
D10*
%TO.P,R46,1*%
%TO.N,Net-(Q25-C)*%
X114190000Y-94500000D03*
%TO.P,R46,2*%
%TO.N,/VBUS*%
X121810000Y-94500000D03*
%TD*%
D11*
%TO.P,Q27,1,E_1*%
%TO.N,GND*%
X125230000Y-89360000D03*
D12*
%TO.P,Q27,2,B_2*%
%TO.N,Net-(Q27-B)*%
X126500000Y-89360000D03*
%TO.P,Q27,3,C_3*%
%TO.N,/PWR_SIG*%
X127770000Y-89360000D03*
%TD*%
D13*
%TO.P,Q28,1,G_1*%
%TO.N,Net-(Q25-C)*%
X114920000Y-91500000D03*
D14*
%TO.P,Q28,2,D_2*%
%TO.N,/VIN*%
X117460000Y-91500000D03*
%TO.P,Q28,3,S_3*%
%TO.N,/VBUS*%
X120000000Y-91500000D03*
%TD*%
D10*
%TO.P,R41,1*%
%TO.N,Net-(Q24-B)*%
X122310000Y-78000000D03*
%TO.P,R41,2*%
%TO.N,/POWER*%
X114690000Y-78000000D03*
%TD*%
D15*
%TO.P,J1,1,Pin_1_1*%
%TO.N,GND*%
X131000000Y-79340000D03*
D16*
%TO.P,J1,2,Pin_2_2*%
%TO.N,/VBUS*%
X131000000Y-81880000D03*
%TO.P,J1,3,Pin_3_3*%
%TO.N,/VIN*%
X131000000Y-84420000D03*
%TO.P,J1,4,Pin_4_4*%
%TO.N,/POWER*%
X131000000Y-86960000D03*
%TO.P,J1,5,Pin_5_5*%
%TO.N,/PWR_SIG*%
X131000000Y-89500000D03*
%TO.P,J1,6,Pin_6_6*%
%TO.N,GND*%
X131000000Y-92040000D03*
%TO.P,J1,7,Pin_7_7*%
%TO.N,Net-(J1-Pin_7)*%
X131000000Y-94580000D03*
%TD*%
D10*
%TO.P,R44,1*%
%TO.N,Net-(J1-Pin_7)*%
X124500000Y-92500000D03*
%TO.P,R44,2*%
%TO.N,Net-(Q27-B)*%
X124500000Y-100120000D03*
%TD*%
%TO.P,R43,1*%
%TO.N,/VBUS*%
X120190000Y-85000000D03*
%TO.P,R43,2*%
%TO.N,Net-(Q24-C)*%
X127810000Y-85000000D03*
%TD*%
D11*
%TO.P,Q24,1,E_1*%
%TO.N,GND*%
X125230000Y-74860000D03*
D12*
%TO.P,Q24,2,B_2*%
%TO.N,Net-(Q24-B)*%
X126500000Y-74860000D03*
%TO.P,Q24,3,C_3*%
%TO.N,Net-(Q24-C)*%
X127770000Y-74860000D03*
%TD*%
D10*
%TO.P,R45,1*%
%TO.N,Net-(J1-Pin_7)*%
X127500000Y-92500000D03*
%TO.P,R45,2*%
%TO.N,/VBUS*%
X127500000Y-100120000D03*
%TD*%
D11*
%TO.P,Q25,1,E_1*%
%TO.N,GND*%
X114730000Y-85860000D03*
D12*
%TO.P,Q25,2,B_2*%
%TO.N,Net-(Q25-B)*%
X116000000Y-85860000D03*
%TO.P,Q25,3,C_3*%
%TO.N,Net-(Q25-C)*%
X117270000Y-85860000D03*
%TD*%
D11*
%TO.P,Q26,1,E_1*%
%TO.N,Net-(J1-Pin_7)*%
X125230000Y-79860000D03*
D12*
%TO.P,Q26,2,B_2*%
%TO.N,Net-(Q24-C)*%
X126500000Y-79860000D03*
%TO.P,Q26,3,C_3*%
%TO.N,Net-(Q25-C)*%
X127770000Y-79860000D03*
%TD*%
D10*
%TO.P,R42,1*%
%TO.N,/POWER*%
X122500000Y-81500000D03*
%TO.P,R42,2*%
%TO.N,Net-(Q25-B)*%
X114880000Y-81500000D03*
%TD*%
D17*
%TO.N,GND*%
X125230000Y-85110000D03*
%TD*%
%TO.N,Net-(Q25-C)*%
D18*
X114920000Y-91500000D02*
X114920000Y-93770000D01*
X114920000Y-93770000D02*
X114190000Y-94500000D01*
X117270000Y-89150000D02*
X114920000Y-91500000D01*
X117270000Y-85860000D02*
X117270000Y-89150000D01*
%TO.N,/VBUS*%
X130150000Y-82730000D02*
X122460000Y-82730000D01*
X131000000Y-81880000D02*
X130150000Y-82730000D01*
X122460000Y-82730000D02*
X120190000Y-85000000D01*
%TO.N,GND*%
X127045000Y-91400000D02*
X130360000Y-91400000D01*
X116568274Y-83900000D02*
X117534365Y-83900000D01*
X125230000Y-74860000D02*
X125230000Y-74635000D01*
X125230000Y-74635000D02*
X126055000Y-73810000D01*
X128111726Y-73810000D02*
X129500000Y-75198274D01*
X129500000Y-80000000D02*
X130340000Y-80000000D01*
X126055000Y-73810000D02*
X128111726Y-73810000D01*
X122294314Y-86100000D02*
X123284314Y-85110000D01*
X125230000Y-89360000D02*
X125230000Y-89585000D01*
X114730000Y-85860000D02*
X114730000Y-85738274D01*
X129500000Y-75198274D02*
X129500000Y-80000000D01*
X117534365Y-83900000D02*
X119734365Y-86100000D01*
X130360000Y-91400000D02*
X131000000Y-92040000D01*
X125230000Y-89585000D02*
X127045000Y-91400000D01*
X114730000Y-85738274D02*
X116568274Y-83900000D01*
X130340000Y-80000000D02*
X131000000Y-79340000D01*
X123284314Y-85110000D02*
X125230000Y-85110000D01*
X119734365Y-86100000D02*
X122294314Y-86100000D01*
%TO.N,Net-(Q27-B)*%
X123400000Y-99020000D02*
X124500000Y-100120000D01*
X123400000Y-89315000D02*
X123400000Y-99020000D01*
X126500000Y-89360000D02*
X126500000Y-88755000D01*
X126500000Y-88755000D02*
X126055000Y-88310000D01*
X124405000Y-88310000D02*
X123400000Y-89315000D01*
X126055000Y-88310000D02*
X124405000Y-88310000D01*
%TO.N,/PWR_SIG*%
X127770000Y-89360000D02*
X130860000Y-89360000D01*
X130860000Y-89360000D02*
X131000000Y-89500000D01*
%TO.N,/VIN*%
X117460000Y-91500000D02*
X122860000Y-86100000D01*
X129320000Y-86100000D02*
X131000000Y-84420000D01*
X122860000Y-86100000D02*
X129320000Y-86100000D01*
%TO.N,Net-(Q24-B)*%
X126500000Y-74860000D02*
X126500000Y-75465000D01*
X123965000Y-78000000D02*
X122310000Y-78000000D01*
X126500000Y-75465000D02*
X123965000Y-78000000D01*
%TO.N,/POWER*%
X131476346Y-80730000D02*
X132150000Y-81403654D01*
X129753654Y-81500000D02*
X130523654Y-80730000D01*
X122500000Y-81500000D02*
X129753654Y-81500000D01*
X132150000Y-81403654D02*
X132150000Y-85810000D01*
X130523654Y-80730000D02*
X131476346Y-80730000D01*
X114690000Y-78000000D02*
X119000000Y-78000000D01*
X132150000Y-85810000D02*
X131000000Y-86960000D01*
X119000000Y-78000000D02*
X122500000Y-81500000D01*
%TO.N,Net-(J1-Pin_7)*%
X128920000Y-92500000D02*
X131000000Y-94580000D01*
X127500000Y-92500000D02*
X128920000Y-92500000D01*
X127500000Y-92500000D02*
X124500000Y-92500000D01*
%TO.N,Net-(Q24-C)*%
X127770000Y-74860000D02*
X127770000Y-75085000D01*
X127770000Y-75085000D02*
X126500000Y-76355000D01*
X126500000Y-76355000D02*
X126500000Y-79860000D01*
%TO.N,Net-(Q25-B)*%
X116000000Y-86465000D02*
X116000000Y-85860000D01*
X113905000Y-86910000D02*
X115555000Y-86910000D01*
X115555000Y-86910000D02*
X116000000Y-86465000D01*
X114880000Y-81500000D02*
X113905000Y-82475000D01*
X113905000Y-82475000D02*
X113905000Y-86910000D01*
%TD*%
M02*
