%TF.GenerationSoftware,KiCad,Pcbnew,10.0.3*%
%TF.CreationDate,2026-06-14T21:34:11-04:00*%
%TF.ProjectId,PowerButton,506f7765-7242-4757-9474-6f6e2e6b6963,rev?*%
%TF.SameCoordinates,Original*%
%TF.FileFunction,Legend,Top*%
%TF.FilePolarity,Positive*%
%FSLAX46Y46*%
G04 Gerber Fmt 4.6, Leading zero omitted, Abs format (unit mm)*
G04 Created by KiCad (PCBNEW 10.0.3) date 2026-06-14 21:34:11*
%MOMM*%
%LPD*%
G01*
G04 APERTURE LIST*
%ADD10C,0.150000*%
%ADD11C,0.120000*%
G04 APERTURE END LIST*
D10*
X134238095Y-103304819D02*
X134238095Y-102304819D01*
X134238095Y-102781009D02*
X134809523Y-102781009D01*
X134809523Y-103304819D02*
X134809523Y-102304819D01*
X135714285Y-102638152D02*
X135714285Y-103304819D01*
X135476190Y-102257200D02*
X135238095Y-102971485D01*
X135238095Y-102971485D02*
X135857142Y-102971485D01*
X104238095Y-103304819D02*
X104238095Y-102304819D01*
X104238095Y-102781009D02*
X104809523Y-102781009D01*
X104809523Y-103304819D02*
X104809523Y-102304819D01*
X105190476Y-102304819D02*
X105809523Y-102304819D01*
X105809523Y-102304819D02*
X105476190Y-102685771D01*
X105476190Y-102685771D02*
X105619047Y-102685771D01*
X105619047Y-102685771D02*
X105714285Y-102733390D01*
X105714285Y-102733390D02*
X105761904Y-102781009D01*
X105761904Y-102781009D02*
X105809523Y-102876247D01*
X105809523Y-102876247D02*
X105809523Y-103114342D01*
X105809523Y-103114342D02*
X105761904Y-103209580D01*
X105761904Y-103209580D02*
X105714285Y-103257200D01*
X105714285Y-103257200D02*
X105619047Y-103304819D01*
X105619047Y-103304819D02*
X105333333Y-103304819D01*
X105333333Y-103304819D02*
X105238095Y-103257200D01*
X105238095Y-103257200D02*
X105190476Y-103209580D01*
X104238095Y-66304819D02*
X104238095Y-65304819D01*
X104238095Y-65781009D02*
X104809523Y-65781009D01*
X104809523Y-66304819D02*
X104809523Y-65304819D01*
X105238095Y-65400057D02*
X105285714Y-65352438D01*
X105285714Y-65352438D02*
X105380952Y-65304819D01*
X105380952Y-65304819D02*
X105619047Y-65304819D01*
X105619047Y-65304819D02*
X105714285Y-65352438D01*
X105714285Y-65352438D02*
X105761904Y-65400057D01*
X105761904Y-65400057D02*
X105809523Y-65495295D01*
X105809523Y-65495295D02*
X105809523Y-65590533D01*
X105809523Y-65590533D02*
X105761904Y-65733390D01*
X105761904Y-65733390D02*
X105190476Y-66304819D01*
X105190476Y-66304819D02*
X105809523Y-66304819D01*
X134238095Y-66304819D02*
X134238095Y-65304819D01*
X134238095Y-65781009D02*
X134809523Y-65781009D01*
X134809523Y-66304819D02*
X134809523Y-65304819D01*
X135809523Y-66304819D02*
X135238095Y-66304819D01*
X135523809Y-66304819D02*
X135523809Y-65304819D01*
X135523809Y-65304819D02*
X135428571Y-65447676D01*
X135428571Y-65447676D02*
X135333333Y-65542914D01*
X135333333Y-65542914D02*
X135238095Y-65590533D01*
X113007142Y-100321976D02*
X112673809Y-99845785D01*
X112435714Y-100321976D02*
X112435714Y-99321976D01*
X112435714Y-99321976D02*
X112816666Y-99321976D01*
X112816666Y-99321976D02*
X112911904Y-99369595D01*
X112911904Y-99369595D02*
X112959523Y-99417214D01*
X112959523Y-99417214D02*
X113007142Y-99512452D01*
X113007142Y-99512452D02*
X113007142Y-99655309D01*
X113007142Y-99655309D02*
X112959523Y-99750547D01*
X112959523Y-99750547D02*
X112911904Y-99798166D01*
X112911904Y-99798166D02*
X112816666Y-99845785D01*
X112816666Y-99845785D02*
X112435714Y-99845785D01*
X113864285Y-99655309D02*
X113864285Y-100321976D01*
X113626190Y-99274357D02*
X113388095Y-99988642D01*
X113388095Y-99988642D02*
X114007142Y-99988642D01*
X114816666Y-99321976D02*
X114626190Y-99321976D01*
X114626190Y-99321976D02*
X114530952Y-99369595D01*
X114530952Y-99369595D02*
X114483333Y-99417214D01*
X114483333Y-99417214D02*
X114388095Y-99560071D01*
X114388095Y-99560071D02*
X114340476Y-99750547D01*
X114340476Y-99750547D02*
X114340476Y-100131499D01*
X114340476Y-100131499D02*
X114388095Y-100226737D01*
X114388095Y-100226737D02*
X114435714Y-100274357D01*
X114435714Y-100274357D02*
X114530952Y-100321976D01*
X114530952Y-100321976D02*
X114721428Y-100321976D01*
X114721428Y-100321976D02*
X114816666Y-100274357D01*
X114816666Y-100274357D02*
X114864285Y-100226737D01*
X114864285Y-100226737D02*
X114911904Y-100131499D01*
X114911904Y-100131499D02*
X114911904Y-99893404D01*
X114911904Y-99893404D02*
X114864285Y-99798166D01*
X114864285Y-99798166D02*
X114816666Y-99750547D01*
X114816666Y-99750547D02*
X114721428Y-99702928D01*
X114721428Y-99702928D02*
X114530952Y-99702928D01*
X114530952Y-99702928D02*
X114435714Y-99750547D01*
X114435714Y-99750547D02*
X114388095Y-99798166D01*
X114388095Y-99798166D02*
X114340476Y-99893404D01*
X124428571Y-89850057D02*
X124333333Y-89802438D01*
X124333333Y-89802438D02*
X124238095Y-89707200D01*
X124238095Y-89707200D02*
X124095238Y-89564342D01*
X124095238Y-89564342D02*
X124000000Y-89516723D01*
X124000000Y-89516723D02*
X123904762Y-89516723D01*
X123952381Y-89754819D02*
X123857143Y-89707200D01*
X123857143Y-89707200D02*
X123761905Y-89611961D01*
X123761905Y-89611961D02*
X123714286Y-89421485D01*
X123714286Y-89421485D02*
X123714286Y-89088152D01*
X123714286Y-89088152D02*
X123761905Y-88897676D01*
X123761905Y-88897676D02*
X123857143Y-88802438D01*
X123857143Y-88802438D02*
X123952381Y-88754819D01*
X123952381Y-88754819D02*
X124142857Y-88754819D01*
X124142857Y-88754819D02*
X124238095Y-88802438D01*
X124238095Y-88802438D02*
X124333333Y-88897676D01*
X124333333Y-88897676D02*
X124380952Y-89088152D01*
X124380952Y-89088152D02*
X124380952Y-89421485D01*
X124380952Y-89421485D02*
X124333333Y-89611961D01*
X124333333Y-89611961D02*
X124238095Y-89707200D01*
X124238095Y-89707200D02*
X124142857Y-89754819D01*
X124142857Y-89754819D02*
X123952381Y-89754819D01*
X124761905Y-88850057D02*
X124809524Y-88802438D01*
X124809524Y-88802438D02*
X124904762Y-88754819D01*
X124904762Y-88754819D02*
X125142857Y-88754819D01*
X125142857Y-88754819D02*
X125238095Y-88802438D01*
X125238095Y-88802438D02*
X125285714Y-88850057D01*
X125285714Y-88850057D02*
X125333333Y-88945295D01*
X125333333Y-88945295D02*
X125333333Y-89040533D01*
X125333333Y-89040533D02*
X125285714Y-89183390D01*
X125285714Y-89183390D02*
X124714286Y-89754819D01*
X124714286Y-89754819D02*
X125333333Y-89754819D01*
X125666667Y-88754819D02*
X126333333Y-88754819D01*
X126333333Y-88754819D02*
X125904762Y-89754819D01*
X113388571Y-93450057D02*
X113293333Y-93402438D01*
X113293333Y-93402438D02*
X113198095Y-93307200D01*
X113198095Y-93307200D02*
X113055238Y-93164342D01*
X113055238Y-93164342D02*
X112960000Y-93116723D01*
X112960000Y-93116723D02*
X112864762Y-93116723D01*
X112912381Y-93354819D02*
X112817143Y-93307200D01*
X112817143Y-93307200D02*
X112721905Y-93211961D01*
X112721905Y-93211961D02*
X112674286Y-93021485D01*
X112674286Y-93021485D02*
X112674286Y-92688152D01*
X112674286Y-92688152D02*
X112721905Y-92497676D01*
X112721905Y-92497676D02*
X112817143Y-92402438D01*
X112817143Y-92402438D02*
X112912381Y-92354819D01*
X112912381Y-92354819D02*
X113102857Y-92354819D01*
X113102857Y-92354819D02*
X113198095Y-92402438D01*
X113198095Y-92402438D02*
X113293333Y-92497676D01*
X113293333Y-92497676D02*
X113340952Y-92688152D01*
X113340952Y-92688152D02*
X113340952Y-93021485D01*
X113340952Y-93021485D02*
X113293333Y-93211961D01*
X113293333Y-93211961D02*
X113198095Y-93307200D01*
X113198095Y-93307200D02*
X113102857Y-93354819D01*
X113102857Y-93354819D02*
X112912381Y-93354819D01*
X113721905Y-92450057D02*
X113769524Y-92402438D01*
X113769524Y-92402438D02*
X113864762Y-92354819D01*
X113864762Y-92354819D02*
X114102857Y-92354819D01*
X114102857Y-92354819D02*
X114198095Y-92402438D01*
X114198095Y-92402438D02*
X114245714Y-92450057D01*
X114245714Y-92450057D02*
X114293333Y-92545295D01*
X114293333Y-92545295D02*
X114293333Y-92640533D01*
X114293333Y-92640533D02*
X114245714Y-92783390D01*
X114245714Y-92783390D02*
X113674286Y-93354819D01*
X113674286Y-93354819D02*
X114293333Y-93354819D01*
X114864762Y-92783390D02*
X114769524Y-92735771D01*
X114769524Y-92735771D02*
X114721905Y-92688152D01*
X114721905Y-92688152D02*
X114674286Y-92592914D01*
X114674286Y-92592914D02*
X114674286Y-92545295D01*
X114674286Y-92545295D02*
X114721905Y-92450057D01*
X114721905Y-92450057D02*
X114769524Y-92402438D01*
X114769524Y-92402438D02*
X114864762Y-92354819D01*
X114864762Y-92354819D02*
X115055238Y-92354819D01*
X115055238Y-92354819D02*
X115150476Y-92402438D01*
X115150476Y-92402438D02*
X115198095Y-92450057D01*
X115198095Y-92450057D02*
X115245714Y-92545295D01*
X115245714Y-92545295D02*
X115245714Y-92592914D01*
X115245714Y-92592914D02*
X115198095Y-92688152D01*
X115198095Y-92688152D02*
X115150476Y-92735771D01*
X115150476Y-92735771D02*
X115055238Y-92783390D01*
X115055238Y-92783390D02*
X114864762Y-92783390D01*
X114864762Y-92783390D02*
X114769524Y-92831009D01*
X114769524Y-92831009D02*
X114721905Y-92878628D01*
X114721905Y-92878628D02*
X114674286Y-92973866D01*
X114674286Y-92973866D02*
X114674286Y-93164342D01*
X114674286Y-93164342D02*
X114721905Y-93259580D01*
X114721905Y-93259580D02*
X114769524Y-93307200D01*
X114769524Y-93307200D02*
X114864762Y-93354819D01*
X114864762Y-93354819D02*
X115055238Y-93354819D01*
X115055238Y-93354819D02*
X115150476Y-93307200D01*
X115150476Y-93307200D02*
X115198095Y-93259580D01*
X115198095Y-93259580D02*
X115245714Y-93164342D01*
X115245714Y-93164342D02*
X115245714Y-92973866D01*
X115245714Y-92973866D02*
X115198095Y-92878628D01*
X115198095Y-92878628D02*
X115150476Y-92831009D01*
X115150476Y-92831009D02*
X115055238Y-92783390D01*
X116047142Y-71824819D02*
X115713809Y-71348628D01*
X115475714Y-71824819D02*
X115475714Y-70824819D01*
X115475714Y-70824819D02*
X115856666Y-70824819D01*
X115856666Y-70824819D02*
X115951904Y-70872438D01*
X115951904Y-70872438D02*
X115999523Y-70920057D01*
X115999523Y-70920057D02*
X116047142Y-71015295D01*
X116047142Y-71015295D02*
X116047142Y-71158152D01*
X116047142Y-71158152D02*
X115999523Y-71253390D01*
X115999523Y-71253390D02*
X115951904Y-71301009D01*
X115951904Y-71301009D02*
X115856666Y-71348628D01*
X115856666Y-71348628D02*
X115475714Y-71348628D01*
X116904285Y-71158152D02*
X116904285Y-71824819D01*
X116666190Y-70777200D02*
X116428095Y-71491485D01*
X116428095Y-71491485D02*
X117047142Y-71491485D01*
X117951904Y-71824819D02*
X117380476Y-71824819D01*
X117666190Y-71824819D02*
X117666190Y-70824819D01*
X117666190Y-70824819D02*
X117570952Y-70967676D01*
X117570952Y-70967676D02*
X117475714Y-71062914D01*
X117475714Y-71062914D02*
X117380476Y-71110533D01*
X130666666Y-71074819D02*
X130666666Y-71789104D01*
X130666666Y-71789104D02*
X130619047Y-71931961D01*
X130619047Y-71931961D02*
X130523809Y-72027200D01*
X130523809Y-72027200D02*
X130380952Y-72074819D01*
X130380952Y-72074819D02*
X130285714Y-72074819D01*
X131666666Y-72074819D02*
X131095238Y-72074819D01*
X131380952Y-72074819D02*
X131380952Y-71074819D01*
X131380952Y-71074819D02*
X131285714Y-71217676D01*
X131285714Y-71217676D02*
X131190476Y-71312914D01*
X131190476Y-71312914D02*
X131095238Y-71360533D01*
X126857142Y-101454819D02*
X126523809Y-100978628D01*
X126285714Y-101454819D02*
X126285714Y-100454819D01*
X126285714Y-100454819D02*
X126666666Y-100454819D01*
X126666666Y-100454819D02*
X126761904Y-100502438D01*
X126761904Y-100502438D02*
X126809523Y-100550057D01*
X126809523Y-100550057D02*
X126857142Y-100645295D01*
X126857142Y-100645295D02*
X126857142Y-100788152D01*
X126857142Y-100788152D02*
X126809523Y-100883390D01*
X126809523Y-100883390D02*
X126761904Y-100931009D01*
X126761904Y-100931009D02*
X126666666Y-100978628D01*
X126666666Y-100978628D02*
X126285714Y-100978628D01*
X127714285Y-100788152D02*
X127714285Y-101454819D01*
X127476190Y-100407200D02*
X127238095Y-101121485D01*
X127238095Y-101121485D02*
X127857142Y-101121485D01*
X128666666Y-100788152D02*
X128666666Y-101454819D01*
X128428571Y-100407200D02*
X128190476Y-101121485D01*
X128190476Y-101121485D02*
X128809523Y-101121485D01*
X115357142Y-87584819D02*
X115023809Y-87108628D01*
X114785714Y-87584819D02*
X114785714Y-86584819D01*
X114785714Y-86584819D02*
X115166666Y-86584819D01*
X115166666Y-86584819D02*
X115261904Y-86632438D01*
X115261904Y-86632438D02*
X115309523Y-86680057D01*
X115309523Y-86680057D02*
X115357142Y-86775295D01*
X115357142Y-86775295D02*
X115357142Y-86918152D01*
X115357142Y-86918152D02*
X115309523Y-87013390D01*
X115309523Y-87013390D02*
X115261904Y-87061009D01*
X115261904Y-87061009D02*
X115166666Y-87108628D01*
X115166666Y-87108628D02*
X114785714Y-87108628D01*
X116214285Y-86918152D02*
X116214285Y-87584819D01*
X115976190Y-86537200D02*
X115738095Y-87251485D01*
X115738095Y-87251485D02*
X116357142Y-87251485D01*
X116642857Y-86584819D02*
X117261904Y-86584819D01*
X117261904Y-86584819D02*
X116928571Y-86965771D01*
X116928571Y-86965771D02*
X117071428Y-86965771D01*
X117071428Y-86965771D02*
X117166666Y-87013390D01*
X117166666Y-87013390D02*
X117214285Y-87061009D01*
X117214285Y-87061009D02*
X117261904Y-87156247D01*
X117261904Y-87156247D02*
X117261904Y-87394342D01*
X117261904Y-87394342D02*
X117214285Y-87489580D01*
X117214285Y-87489580D02*
X117166666Y-87537200D01*
X117166666Y-87537200D02*
X117071428Y-87584819D01*
X117071428Y-87584819D02*
X116785714Y-87584819D01*
X116785714Y-87584819D02*
X116690476Y-87537200D01*
X116690476Y-87537200D02*
X116642857Y-87489580D01*
X123928571Y-71850057D02*
X123833333Y-71802438D01*
X123833333Y-71802438D02*
X123738095Y-71707200D01*
X123738095Y-71707200D02*
X123595238Y-71564342D01*
X123595238Y-71564342D02*
X123500000Y-71516723D01*
X123500000Y-71516723D02*
X123404762Y-71516723D01*
X123452381Y-71754819D02*
X123357143Y-71707200D01*
X123357143Y-71707200D02*
X123261905Y-71611961D01*
X123261905Y-71611961D02*
X123214286Y-71421485D01*
X123214286Y-71421485D02*
X123214286Y-71088152D01*
X123214286Y-71088152D02*
X123261905Y-70897676D01*
X123261905Y-70897676D02*
X123357143Y-70802438D01*
X123357143Y-70802438D02*
X123452381Y-70754819D01*
X123452381Y-70754819D02*
X123642857Y-70754819D01*
X123642857Y-70754819D02*
X123738095Y-70802438D01*
X123738095Y-70802438D02*
X123833333Y-70897676D01*
X123833333Y-70897676D02*
X123880952Y-71088152D01*
X123880952Y-71088152D02*
X123880952Y-71421485D01*
X123880952Y-71421485D02*
X123833333Y-71611961D01*
X123833333Y-71611961D02*
X123738095Y-71707200D01*
X123738095Y-71707200D02*
X123642857Y-71754819D01*
X123642857Y-71754819D02*
X123452381Y-71754819D01*
X124261905Y-70850057D02*
X124309524Y-70802438D01*
X124309524Y-70802438D02*
X124404762Y-70754819D01*
X124404762Y-70754819D02*
X124642857Y-70754819D01*
X124642857Y-70754819D02*
X124738095Y-70802438D01*
X124738095Y-70802438D02*
X124785714Y-70850057D01*
X124785714Y-70850057D02*
X124833333Y-70945295D01*
X124833333Y-70945295D02*
X124833333Y-71040533D01*
X124833333Y-71040533D02*
X124785714Y-71183390D01*
X124785714Y-71183390D02*
X124214286Y-71754819D01*
X124214286Y-71754819D02*
X124833333Y-71754819D01*
X125690476Y-71088152D02*
X125690476Y-71754819D01*
X125452381Y-70707200D02*
X125214286Y-71421485D01*
X125214286Y-71421485D02*
X125833333Y-71421485D01*
X126857142Y-106824819D02*
X126523809Y-106348628D01*
X126285714Y-106824819D02*
X126285714Y-105824819D01*
X126285714Y-105824819D02*
X126666666Y-105824819D01*
X126666666Y-105824819D02*
X126761904Y-105872438D01*
X126761904Y-105872438D02*
X126809523Y-105920057D01*
X126809523Y-105920057D02*
X126857142Y-106015295D01*
X126857142Y-106015295D02*
X126857142Y-106158152D01*
X126857142Y-106158152D02*
X126809523Y-106253390D01*
X126809523Y-106253390D02*
X126761904Y-106301009D01*
X126761904Y-106301009D02*
X126666666Y-106348628D01*
X126666666Y-106348628D02*
X126285714Y-106348628D01*
X127714285Y-106158152D02*
X127714285Y-106824819D01*
X127476190Y-105777200D02*
X127238095Y-106491485D01*
X127238095Y-106491485D02*
X127857142Y-106491485D01*
X128714285Y-105824819D02*
X128238095Y-105824819D01*
X128238095Y-105824819D02*
X128190476Y-106301009D01*
X128190476Y-106301009D02*
X128238095Y-106253390D01*
X128238095Y-106253390D02*
X128333333Y-106205771D01*
X128333333Y-106205771D02*
X128571428Y-106205771D01*
X128571428Y-106205771D02*
X128666666Y-106253390D01*
X128666666Y-106253390D02*
X128714285Y-106301009D01*
X128714285Y-106301009D02*
X128761904Y-106396247D01*
X128761904Y-106396247D02*
X128761904Y-106634342D01*
X128761904Y-106634342D02*
X128714285Y-106729580D01*
X128714285Y-106729580D02*
X128666666Y-106777200D01*
X128666666Y-106777200D02*
X128571428Y-106824819D01*
X128571428Y-106824819D02*
X128333333Y-106824819D01*
X128333333Y-106824819D02*
X128238095Y-106777200D01*
X128238095Y-106777200D02*
X128190476Y-106729580D01*
X115928571Y-79850057D02*
X115833333Y-79802438D01*
X115833333Y-79802438D02*
X115738095Y-79707200D01*
X115738095Y-79707200D02*
X115595238Y-79564342D01*
X115595238Y-79564342D02*
X115500000Y-79516723D01*
X115500000Y-79516723D02*
X115404762Y-79516723D01*
X115452381Y-79754819D02*
X115357143Y-79707200D01*
X115357143Y-79707200D02*
X115261905Y-79611961D01*
X115261905Y-79611961D02*
X115214286Y-79421485D01*
X115214286Y-79421485D02*
X115214286Y-79088152D01*
X115214286Y-79088152D02*
X115261905Y-78897676D01*
X115261905Y-78897676D02*
X115357143Y-78802438D01*
X115357143Y-78802438D02*
X115452381Y-78754819D01*
X115452381Y-78754819D02*
X115642857Y-78754819D01*
X115642857Y-78754819D02*
X115738095Y-78802438D01*
X115738095Y-78802438D02*
X115833333Y-78897676D01*
X115833333Y-78897676D02*
X115880952Y-79088152D01*
X115880952Y-79088152D02*
X115880952Y-79421485D01*
X115880952Y-79421485D02*
X115833333Y-79611961D01*
X115833333Y-79611961D02*
X115738095Y-79707200D01*
X115738095Y-79707200D02*
X115642857Y-79754819D01*
X115642857Y-79754819D02*
X115452381Y-79754819D01*
X116261905Y-78850057D02*
X116309524Y-78802438D01*
X116309524Y-78802438D02*
X116404762Y-78754819D01*
X116404762Y-78754819D02*
X116642857Y-78754819D01*
X116642857Y-78754819D02*
X116738095Y-78802438D01*
X116738095Y-78802438D02*
X116785714Y-78850057D01*
X116785714Y-78850057D02*
X116833333Y-78945295D01*
X116833333Y-78945295D02*
X116833333Y-79040533D01*
X116833333Y-79040533D02*
X116785714Y-79183390D01*
X116785714Y-79183390D02*
X116214286Y-79754819D01*
X116214286Y-79754819D02*
X116833333Y-79754819D01*
X117738095Y-78754819D02*
X117261905Y-78754819D01*
X117261905Y-78754819D02*
X117214286Y-79231009D01*
X117214286Y-79231009D02*
X117261905Y-79183390D01*
X117261905Y-79183390D02*
X117357143Y-79135771D01*
X117357143Y-79135771D02*
X117595238Y-79135771D01*
X117595238Y-79135771D02*
X117690476Y-79183390D01*
X117690476Y-79183390D02*
X117738095Y-79231009D01*
X117738095Y-79231009D02*
X117785714Y-79326247D01*
X117785714Y-79326247D02*
X117785714Y-79564342D01*
X117785714Y-79564342D02*
X117738095Y-79659580D01*
X117738095Y-79659580D02*
X117690476Y-79707200D01*
X117690476Y-79707200D02*
X117595238Y-79754819D01*
X117595238Y-79754819D02*
X117357143Y-79754819D01*
X117357143Y-79754819D02*
X117261905Y-79707200D01*
X117261905Y-79707200D02*
X117214286Y-79659580D01*
X123608571Y-79540057D02*
X123513333Y-79492438D01*
X123513333Y-79492438D02*
X123418095Y-79397200D01*
X123418095Y-79397200D02*
X123275238Y-79254342D01*
X123275238Y-79254342D02*
X123180000Y-79206723D01*
X123180000Y-79206723D02*
X123084762Y-79206723D01*
X123132381Y-79444819D02*
X123037143Y-79397200D01*
X123037143Y-79397200D02*
X122941905Y-79301961D01*
X122941905Y-79301961D02*
X122894286Y-79111485D01*
X122894286Y-79111485D02*
X122894286Y-78778152D01*
X122894286Y-78778152D02*
X122941905Y-78587676D01*
X122941905Y-78587676D02*
X123037143Y-78492438D01*
X123037143Y-78492438D02*
X123132381Y-78444819D01*
X123132381Y-78444819D02*
X123322857Y-78444819D01*
X123322857Y-78444819D02*
X123418095Y-78492438D01*
X123418095Y-78492438D02*
X123513333Y-78587676D01*
X123513333Y-78587676D02*
X123560952Y-78778152D01*
X123560952Y-78778152D02*
X123560952Y-79111485D01*
X123560952Y-79111485D02*
X123513333Y-79301961D01*
X123513333Y-79301961D02*
X123418095Y-79397200D01*
X123418095Y-79397200D02*
X123322857Y-79444819D01*
X123322857Y-79444819D02*
X123132381Y-79444819D01*
X123941905Y-78540057D02*
X123989524Y-78492438D01*
X123989524Y-78492438D02*
X124084762Y-78444819D01*
X124084762Y-78444819D02*
X124322857Y-78444819D01*
X124322857Y-78444819D02*
X124418095Y-78492438D01*
X124418095Y-78492438D02*
X124465714Y-78540057D01*
X124465714Y-78540057D02*
X124513333Y-78635295D01*
X124513333Y-78635295D02*
X124513333Y-78730533D01*
X124513333Y-78730533D02*
X124465714Y-78873390D01*
X124465714Y-78873390D02*
X123894286Y-79444819D01*
X123894286Y-79444819D02*
X124513333Y-79444819D01*
X125370476Y-78444819D02*
X125180000Y-78444819D01*
X125180000Y-78444819D02*
X125084762Y-78492438D01*
X125084762Y-78492438D02*
X125037143Y-78540057D01*
X125037143Y-78540057D02*
X124941905Y-78682914D01*
X124941905Y-78682914D02*
X124894286Y-78873390D01*
X124894286Y-78873390D02*
X124894286Y-79254342D01*
X124894286Y-79254342D02*
X124941905Y-79349580D01*
X124941905Y-79349580D02*
X124989524Y-79397200D01*
X124989524Y-79397200D02*
X125084762Y-79444819D01*
X125084762Y-79444819D02*
X125275238Y-79444819D01*
X125275238Y-79444819D02*
X125370476Y-79397200D01*
X125370476Y-79397200D02*
X125418095Y-79349580D01*
X125418095Y-79349580D02*
X125465714Y-79254342D01*
X125465714Y-79254342D02*
X125465714Y-79016247D01*
X125465714Y-79016247D02*
X125418095Y-78921009D01*
X125418095Y-78921009D02*
X125370476Y-78873390D01*
X125370476Y-78873390D02*
X125275238Y-78825771D01*
X125275238Y-78825771D02*
X125084762Y-78825771D01*
X125084762Y-78825771D02*
X124989524Y-78873390D01*
X124989524Y-78873390D02*
X124941905Y-78921009D01*
X124941905Y-78921009D02*
X124894286Y-79016247D01*
X115857142Y-73584819D02*
X115523809Y-73108628D01*
X115285714Y-73584819D02*
X115285714Y-72584819D01*
X115285714Y-72584819D02*
X115666666Y-72584819D01*
X115666666Y-72584819D02*
X115761904Y-72632438D01*
X115761904Y-72632438D02*
X115809523Y-72680057D01*
X115809523Y-72680057D02*
X115857142Y-72775295D01*
X115857142Y-72775295D02*
X115857142Y-72918152D01*
X115857142Y-72918152D02*
X115809523Y-73013390D01*
X115809523Y-73013390D02*
X115761904Y-73061009D01*
X115761904Y-73061009D02*
X115666666Y-73108628D01*
X115666666Y-73108628D02*
X115285714Y-73108628D01*
X116714285Y-72918152D02*
X116714285Y-73584819D01*
X116476190Y-72537200D02*
X116238095Y-73251485D01*
X116238095Y-73251485D02*
X116857142Y-73251485D01*
X117190476Y-72680057D02*
X117238095Y-72632438D01*
X117238095Y-72632438D02*
X117333333Y-72584819D01*
X117333333Y-72584819D02*
X117571428Y-72584819D01*
X117571428Y-72584819D02*
X117666666Y-72632438D01*
X117666666Y-72632438D02*
X117714285Y-72680057D01*
X117714285Y-72680057D02*
X117761904Y-72775295D01*
X117761904Y-72775295D02*
X117761904Y-72870533D01*
X117761904Y-72870533D02*
X117714285Y-73013390D01*
X117714285Y-73013390D02*
X117142857Y-73584819D01*
X117142857Y-73584819D02*
X117761904Y-73584819D01*
%TO.C,R46*%
D11*
X110380000Y-100867157D02*
X116920000Y-100867157D01*
X110380000Y-101197157D02*
X110380000Y-100867157D01*
X110380000Y-103277157D02*
X110380000Y-103607157D01*
X110380000Y-103607157D02*
X116920000Y-103607157D01*
X116920000Y-100867157D02*
X116920000Y-101197157D01*
X116920000Y-103607157D02*
X116920000Y-103277157D01*
%TO.C,Q27*%
X123200000Y-94710000D02*
X126800000Y-94710000D01*
X123161522Y-94698478D02*
G75*
G02*
X125000000Y-90259999I1838478J1838478D01*
G01*
X125000000Y-90260000D02*
G75*
G02*
X126838478Y-94698478I0J-2600000D01*
G01*
%TO.C,Q28*%
X108850000Y-93740000D02*
X119070000Y-93740000D01*
X108850000Y-95120000D02*
X119070000Y-95120000D01*
X108850000Y-98360000D02*
X108850000Y-93740000D01*
X112110000Y-93740000D02*
X112110000Y-95120000D01*
X115810000Y-93740000D02*
X115810000Y-95120000D01*
X119070000Y-93740000D02*
X119070000Y-98360000D01*
X119070000Y-98360000D02*
X108850000Y-98360000D01*
%TO.C,R41*%
X113420000Y-67630000D02*
X113420000Y-67960000D01*
X113420000Y-70370000D02*
X113420000Y-70040000D01*
X119960000Y-67630000D02*
X113420000Y-67630000D01*
X119960000Y-67960000D02*
X119960000Y-67630000D01*
X119960000Y-70040000D02*
X119960000Y-70370000D01*
X119960000Y-70370000D02*
X113420000Y-70370000D01*
%TO.C,J1*%
X129620000Y-72620000D02*
X131000000Y-72620000D01*
X129620000Y-74000000D02*
X129620000Y-72620000D01*
X129620000Y-75270000D02*
X129620000Y-90620000D01*
X129620000Y-75270000D02*
X132380000Y-75270000D01*
X129620000Y-90620000D02*
X132380000Y-90620000D01*
X132380000Y-75270000D02*
X132380000Y-90620000D01*
%TO.C,R44*%
X124230000Y-96630000D02*
X124230000Y-96960000D01*
X124230000Y-99370000D02*
X124230000Y-99040000D01*
X130770000Y-96630000D02*
X124230000Y-96630000D01*
X130770000Y-96960000D02*
X130770000Y-96630000D01*
X130770000Y-99040000D02*
X130770000Y-99370000D01*
X130770000Y-99370000D02*
X124230000Y-99370000D01*
%TO.C,R43*%
X112730000Y-88130000D02*
X119270000Y-88130000D01*
X112730000Y-88460000D02*
X112730000Y-88130000D01*
X112730000Y-90540000D02*
X112730000Y-90870000D01*
X112730000Y-90870000D02*
X119270000Y-90870000D01*
X119270000Y-88130000D02*
X119270000Y-88460000D01*
X119270000Y-90870000D02*
X119270000Y-90540000D01*
%TO.C,Q24*%
X122700000Y-76710000D02*
X126300000Y-76710000D01*
X122661522Y-76698478D02*
G75*
G02*
X124500000Y-72259999I1838478J1838478D01*
G01*
X124500000Y-72260000D02*
G75*
G02*
X126338478Y-76698478I0J-2600000D01*
G01*
%TO.C,R45*%
X124230000Y-102630000D02*
X124230000Y-102960000D01*
X124230000Y-105370000D02*
X124230000Y-105040000D01*
X130770000Y-102630000D02*
X124230000Y-102630000D01*
X130770000Y-102960000D02*
X130770000Y-102630000D01*
X130770000Y-105040000D02*
X130770000Y-105370000D01*
X130770000Y-105370000D02*
X124230000Y-105370000D01*
%TO.C,Q25*%
X114700000Y-84710000D02*
X118300000Y-84710000D01*
X114661522Y-84698478D02*
G75*
G02*
X116500000Y-80259999I1838478J1838478D01*
G01*
X116500000Y-80260000D02*
G75*
G02*
X118338478Y-84698478I0J-2600000D01*
G01*
%TO.C,Q26*%
X122380000Y-84400000D02*
X125980000Y-84400000D01*
X122341522Y-84388478D02*
G75*
G02*
X124180000Y-79949999I1838478J1838478D01*
G01*
X124180000Y-79950000D02*
G75*
G02*
X126018478Y-84388478I0J-2600000D01*
G01*
%TO.C,R42*%
X113230000Y-74130000D02*
X119770000Y-74130000D01*
X113230000Y-74460000D02*
X113230000Y-74130000D01*
X113230000Y-76540000D02*
X113230000Y-76870000D01*
X113230000Y-76870000D02*
X119770000Y-76870000D01*
X119770000Y-74130000D02*
X119770000Y-74460000D01*
X119770000Y-76870000D02*
X119770000Y-76540000D01*
%TD*%
M02*
